<svg id="visual" viewBox="0 0 900 600" width="900" height="600" xmlns="http://www.w3.org/2000/svg" xmlns:xlink="http://www.w3.org/1999/xlink" version="1.1"><rect x="0" y="0" width="900" height="600" fill="#ffffff"></rect><g transform="translate(413.70510867968574 303.8022964932588)"><path d="M115.2 -210.6C134.1 -188.7 123.8 -127.1 144 -85.4C164.3 -43.7 215.1 -21.8 223.2 4.7C231.3 31.2 196.6 62.3 177.3 105.6C158 148.9 154 204.4 127 212.3C100 220.2 50 180.6 0.6 179.6C-48.8 178.6 -97.7 216.2 -112.4 201.2C-127.1 186.2 -107.7 118.6 -114.8 76.3C-121.9 34 -155.4 17 -151.5 2.2C-147.7 -12.5 -106.3 -25 -91.4 -53.7C-76.5 -82.4 -88 -127.4 -77.2 -154C-66.3 -180.6 -33.2 -188.8 7.5 -201.8C48.2 -214.8 96.3 -232.5 115.2 -210.6" fill="#fecaca"></path></g></svg>